<svg width="86" height="85" viewBox="0 0 86 85" fill="none" xmlns="http://www.w3.org/2000/svg">
<path d="M21.7784 63.6405C18.9926 60.8547 16.7828 57.5475 15.2752 53.9077C13.7675 50.268 12.9916 46.3669 12.9916 42.4272C12.9916 38.4876 13.7675 34.5865 15.2752 30.9467C16.7828 27.307 18.9926 23.9998 21.7784 21.214C24.5641 18.4283 27.8713 16.2185 31.5111 14.7109C35.1508 13.2032 39.0519 12.4272 42.9916 12.4272C46.9312 12.4272 50.8323 13.2032 54.4721 14.7109C58.1118 16.2185 61.419 18.4283 64.2048 21.214L42.9916 42.4272L21.7784 63.6405Z" fill="#585EFB"/>
<path d="M64.205 21.214C66.9908 23.9998 69.2006 27.307 70.7082 30.9467C72.2159 34.5865 72.9918 38.4876 72.9918 42.4272C72.9918 46.3669 72.2159 50.268 70.7082 53.9078C69.2006 57.5475 66.9908 60.8547 64.205 63.6405C61.4193 66.4262 58.1121 68.636 54.4723 70.1436C50.8326 71.6513 46.9315 72.4273 42.9918 72.4273C39.0522 72.4273 35.1511 71.6513 31.5113 70.1436C27.8716 68.636 24.5644 66.4262 21.7786 63.6405L42.9918 42.4272L64.205 21.214Z" fill="#0A0A0A"/>
</svg>
